<svg width="47" height="12" viewBox="0 0 47 12" fill="none" xmlns="http://www.w3.org/2000/svg">
<path d="M4.63965 11L1.74121 2.65332H1.68652C1.764 3.8929 1.80273 5.05501 1.80273 6.13965V11H0.319336V1.00586H2.62305L5.39844 8.95605H5.43945L8.29688 1.00586H10.6074V11H9.03516V6.05762C9.03516 5.56087 9.04655 4.91374 9.06934 4.11621C9.09668 3.31868 9.11947 2.83561 9.1377 2.66699H9.08301L6.08203 11H4.63965ZM23.9323 5.98926C23.9323 7.61621 23.5244 8.88086 22.7087 9.7832C21.8975 10.6855 20.7468 11.1367 19.2565 11.1367C17.7481 11.1367 16.5882 10.6901 15.777 9.79688C14.9704 8.89909 14.5671 7.62533 14.5671 5.97559C14.5671 4.32585 14.9727 3.05892 15.7839 2.1748C16.5996 1.29069 17.7617 0.848633 19.2702 0.848633C20.7559 0.848633 21.9043 1.29753 22.7155 2.19531C23.5267 3.0931 23.9323 4.35775 23.9323 5.98926ZM16.3034 5.98926C16.3034 7.21973 16.5518 8.15397 17.0485 8.79199C17.5453 9.42546 18.2813 9.74219 19.2565 9.74219C20.2272 9.74219 20.9587 9.42773 21.4509 8.79883C21.9476 8.16992 22.196 7.2334 22.196 5.98926C22.196 4.76335 21.9499 3.83366 21.4577 3.2002C20.9701 2.56673 20.2409 2.25 19.2702 2.25C18.2904 2.25 17.5498 2.56673 17.0485 3.2002C16.5518 3.83366 16.3034 4.76335 16.3034 5.98926ZM31.3509 11H29.7171V2.40723H26.7777V1.00586H34.2904V2.40723H31.3509V11ZM46.5215 5.98926C46.5215 7.61621 46.1136 8.88086 45.2979 9.7832C44.4867 10.6855 43.336 11.1367 41.8457 11.1367C40.3373 11.1367 39.1774 10.6901 38.3662 9.79688C37.5596 8.89909 37.1563 7.62533 37.1563 5.97559C37.1563 4.32585 37.5619 3.05892 38.3731 2.1748C39.1888 1.29069 40.3509 0.848633 41.8594 0.848633C43.3451 0.848633 44.4935 1.29753 45.3047 2.19531C46.1159 3.0931 46.5215 4.35775 46.5215 5.98926ZM38.8926 5.98926C38.8926 7.21973 39.141 8.15397 39.6377 8.79199C40.1345 9.42546 40.8705 9.74219 41.8457 9.74219C42.8164 9.74219 43.5479 9.42773 44.0401 8.79883C44.5368 8.16992 44.7852 7.2334 44.7852 5.98926C44.7852 4.76335 44.5391 3.83366 44.0469 3.2002C43.5593 2.56673 42.8301 2.25 41.8594 2.25C40.8796 2.25 40.139 2.56673 39.6377 3.2002C39.141 3.83366 38.8926 4.76335 38.8926 5.98926Z" fill="#48494D"/>
</svg>
