<svg width="55" height="15" viewBox="0 0 55 15" fill="none" xmlns="http://www.w3.org/2000/svg">
<path d="M9.4834 14L8.55176 10.9414H3.86719L2.93555 14H0L4.53516 1.09766H7.86621L12.4189 14H9.4834ZM7.90137 8.65625C7.04004 5.88477 6.55371 4.31738 6.44238 3.9541C6.33691 3.59082 6.26074 3.30371 6.21387 3.09277C6.02051 3.84277 5.4668 5.69727 4.55273 8.65625H7.90137ZM23.715 1.15039H26.466L22.0978 14H19.1271L14.7677 1.15039H17.5187L19.9357 8.79688C20.0705 9.24805 20.2082 9.77539 20.3488 10.3789C20.4953 10.9766 20.5861 11.3926 20.6213 11.627C20.6857 11.0879 20.9054 10.1445 21.2804 8.79688L23.715 1.15039ZM35.389 14H32.6644V3.41797H29.1751V1.15039H38.8782V3.41797H35.389V14ZM54.8589 7.55762C54.8589 9.68457 54.3315 11.3193 53.2768 12.4619C52.2221 13.6045 50.7104 14.1758 48.7417 14.1758C46.7729 14.1758 45.2612 13.6045 44.2065 12.4619C43.1518 11.3193 42.6245 9.67871 42.6245 7.54004C42.6245 5.40137 43.1518 3.76953 44.2065 2.64453C45.2671 1.51367 46.7846 0.948242 48.7593 0.948242C50.7339 0.948242 52.2427 1.5166 53.2856 2.65332C54.3345 3.79004 54.8589 5.4248 54.8589 7.55762ZM45.4809 7.55762C45.4809 8.99316 45.7534 10.0742 46.2983 10.8008C46.8432 11.5273 47.6577 11.8906 48.7417 11.8906C50.9155 11.8906 52.0024 10.4463 52.0024 7.55762C52.0024 4.66309 50.9214 3.21582 48.7593 3.21582C47.6753 3.21582 46.8579 3.58203 46.3071 4.31445C45.7563 5.04102 45.4809 6.12207 45.4809 7.55762Z" fill="#48494D"/>
</svg>
